PathFileType	4	(X/Y/Z)	Trial58_Right_Knee_markers_cropped.trc
DataRate	CameraRate	NumFrames	NumMarkers	Units	OrigDataRate	OrigDataStartFrame	OrigNumFrames																																																																																													
200	200	8	27	m	200	37	101
Frame#	Time	R_ASIS			L_ASIS			Sacral			L_Thigh_Superior			L_Thigh_Inferior			L_Thigh_Lateral			L_Shank_Superior			L_Shank_Inferior			L_Shank_Lateral			L_Heel			L_Midfoot_Superior			L_Midfoot_Lateral			L_Toe			R_Thigh_Superior			R_Thigh_Inferior			R_Thigh_Lateral			R_Shank_Superior			R_Shank_Lateral			R_Shank_Inferior			R_Heel			R_Midfoot_Superior			R_Midfoot_Lateral			R_Toe
		X1	Y1	Z1	X2	Y2	Z2	X3	Y3	Z3	X4	Y4	Z4	X5	Y5	Z5	X6	Y6	Z6	X7	Y7	Z7	X8	Y8	Z8	X9	Y9	Z9	X10	Y10	Z10	X11	Y11	Z11	X12	Y12	Z12	X13	Y13	Z13	X14	Y14	Z14	X15	Y15	Z15	X16	Y16	Z16	X17	Y17	Z17	X18	Y18	Z18	X19	Y19	Z19	X20	Y20	Z20	X21	Y21	Z21	X22	Y22	Z22	X23	Y23	Z23

38	   0.185	   -0.63868943688937	    0.92948204992604	   -0.50691444570194	   -0.62164521756906	    0.93789072640572	   -0.78051143605990	   -0.83554552873843	    1.03484187367476	   -0.65528251519704	   -0.58747820053518	    0.73842054961832	   -0.72953877185970	   -0.59657964849730	    0.54951890321655	   -0.71074909455410	   -0.66496474792491	    0.62890093872166	   -0.79424292966493	   -0.61269119768496	    0.41490905039289	   -0.70338542885021	   -0.62511645510519	    0.19038319149074	   -0.66104729423104	   -0.68353372515401	    0.28605395667933	   -0.74892738029644	   -0.73848432153324	    0.03139227296290	   -0.60978141592643	   -0.58225362809234	    0.09149835062903	   -0.66365908881265	   -0.66155856116678	    0.02777019109901	   -0.68929604648172	   -0.73848432153324	    0.03139227296290	   -0.60978141592643	   -0.58690392159835	    0.74261186528149	   -0.55027771052902	   -0.57590483032043	    0.57573126982321	   -0.57613179341090	   -0.65657091766409	    0.63345701196623	   -0.48977851548121	   -0.71178564536712	    0.43559860755113	   -0.54143336249920	   -0.91354948423292	    0.43176116476503	   -0.52282210939152	   -0.82859181516612	    0.50265758754592	   -0.48180747277862	   -1.10236851737136	    0.52340497817159	   -0.55719313264053	   -1.01364102584338	    0.37569051416784	   -0.49400501383915	   -1.09267881060231	    0.45477411841206	   -0.47011287834635	   -1.04080407927233	    0.25647933478424	   -0.44279424305462
39	   0.190	   -0.63943800759700	    0.92956590378655	   -0.50726131300689	   -0.62207819921851	    0.93765411819565	   -0.78088967402214	   -0.83597773273759	    1.03515006180628	   -0.65599497347635	   -0.58794681673568	    0.73840306305432	   -0.73035252406866	   -0.59710701528867	    0.54952981122426	   -0.71155771030545	   -0.66583422472596	    0.62889983354373	   -0.79465155553867	   -0.61307177285885	    0.41494257456789	   -0.70368694226772	   -0.62522885308168	    0.19041261208406	   -0.66121951730882	   -0.68376379514635	    0.28597381862723	   -0.74912016666083	   -0.73847363794697	    0.03140262743082	   -0.60979170798896	   -0.58220398089451	    0.09148210473680	   -0.66366980533640	   -0.66157526078334	    0.02777620635753	   -0.68933594038886	   -0.73847363794697	    0.03140262743082	   -0.60979170798896	   -0.58684141432218	    0.74367623324250	   -0.55065233749505	   -0.57429130384624	    0.57680863221707	   -0.57565736682066	   -0.65524451281307	    0.63475475516323	   -0.48904452909415	   -0.71181563987891	    0.43890201769828	   -0.54120265806302	   -0.91432365060134	    0.44309258770145	   -0.52394336462844	   -0.82682089267491	    0.51077713612132	   -0.48242170722307	   -1.09928737649051	    0.54213317354067	   -0.56020068668174	   -1.01691333016038	    0.39111977808205	   -0.49531048740651	   -1.09305997930042	    0.47360550081257	   -0.47262768766167	   -1.04942498542133	    0.27316788120943	   -0.44368732153142
40	   0.195	   -0.64010505109444	    0.92971950547613	   -0.50757338170156	   -0.62241037465307	    0.93743084942077	   -0.78123228906235	   -0.83636492004239	    1.03539949615203	   -0.65672073408348	   -0.58827355261335	    0.73842333161613	   -0.73106824982904	   -0.59740114575583	    0.54957053720802	   -0.71224060830096	   -0.66643537367405	    0.62891007871382	   -0.79498534810885	   -0.61324730024228	    0.41495703032389	   -0.70392371450171	   -0.62526168100563	    0.19042149664889	   -0.66134329190710	   -0.68385072156910	    0.28591146249862	   -0.74924878782475	   -0.73846029867504	    0.03141313187432	   -0.60979863596402	   -0.58215257594826	    0.09146404460643	   -0.66367135830728	   -0.66158379272375	    0.02778372589819	   -0.68936649377714	   -0.73846029867504	    0.03141313187432	   -0.60979863596402	   -0.58654652107291	    0.74487937826596	   -0.55086481337149	   -0.57230350184032	    0.57803267261677	   -0.57489513679350	   -0.65368939164610	    0.63613439942889	   -0.48812692096144	   -0.71116441823756	    0.44209870854626	   -0.54073325885281	   -0.91406173398842	    0.45313402559004	   -0.52499904042460	   -0.82450395363593	    0.51801216549199	   -0.48288048662860	   -1.09544434715981	    0.55841213401869	   -0.56315976350520	   -1.01871760897363	    0.40480514329335	   -0.49661826540177	   -1.09230613570429	    0.49012366261776	   -0.47514161288576	   -1.05588457540761	    0.28811246979618	   -0.44467429826174
41	   0.200	   -0.64069555275538	    0.92994545190666	   -0.50784816817787	   -0.62263433847750	    0.93721990750114	   -0.78153218470293	   -0.83669803104783	    1.03560365579185	   -0.65746391266731	   -0.58847802551209	    0.73846624944583	   -0.73167032146544	   -0.59750461421621	    0.54963398047027	   -0.71279470512100	   -0.66679521291592	    0.62893027637521	   -0.79524978150436	   -0.61325760713501	    0.41495499119399	   -0.70409535264374	   -0.62522840351803	    0.19041492544576	   -0.66142247928014	   -0.68382485832327	    0.28586622584258	   -0.74931860377310	   -0.73844516526093	    0.03142310595989	   -0.60980235889690	   -0.58210080986317	    0.09144370075256	   -0.66366484823599	   -0.66158440984992	    0.02779200913342	   -0.68938750466699	   -0.73844516526093	    0.03142310595989	   -0.60980235889690	   -0.58604606867756	    0.74621750232972	   -0.55088959864289	   -0.56999706659088	    0.57940495794921	   -0.57382434401657	   -0.65196524169142	    0.63759013023816	   -0.48702423940884	   -0.70987945339040	    0.44512580587361	   -0.53998024560657	   -0.91290180066117	    0.46169122731390	   -0.52595305176285	   -0.82178344997158	    0.52424395880385	   -0.48316539249803	   -1.09112068747432	    0.57196997646671	   -0.56602236266558	   -1.01919743075707	    0.41643686820612	   -0.49791617514267	   -1.09065718847342	    0.50400498020624	   -0.47761795191871	   -1.06026245327889	    0.30092185427046	   -0.44574762307765
42	   0.205	   -0.64121517416126	    0.93024611176601	   -0.50808529225217	   -0.62274529080729	    0.93702173275945	   -0.78178428268169	   -0.83696919130222	    1.03577625912502	   -0.65822775708319	   -0.58858040743170	    0.73851857919526	   -0.73215308912671	   -0.59746347959879	    0.54971202355944	   -0.71322762980344	   -0.66695205102582	    0.62895883664442	   -0.79545256958117	   -0.61314672119781	    0.41493983724080	   -0.70420579790944	   -0.62514489854360	    0.19039755359574	   -0.66146243856990	   -0.68371923719341	    0.28583693593771	   -0.74933733037984	   -0.73842912683043	    0.03143194915177	   -0.60980319517625	   -0.58205004016096	    0.09142108837785	   -0.66365153411433	   -0.66157847168384	    0.02780072838721	   -0.68939981667813	   -0.73842912683043	    0.03143194915177	   -0.60980319517625	   -0.58536662537104	    0.74768730772677	   -0.55071684582047	   -0.56743685538827	    0.58092601913926	   -0.57244370328841	   -0.65012638641878	    0.63911726758129	   -0.48574755994153	   -0.70801579395706	    0.44792449844143	   -0.53892958967698	   -0.91098977709000	    0.46863314413304	   -0.52677429199846	   -0.81880071631951	    0.52939537711743	   -0.48326311325276	   -1.08657863981818	    0.58264184501642	   -0.56874046158186	   -1.01851423689541	    0.42579336610465	   -0.49918886669031	   -1.08835077660245	    0.51503427690460	   -0.48001679725292	   -1.06268479281438	    0.31130276707630	   -0.44689225166994
43	   0.210	   -0.64166997162658	    0.93062285634089	   -0.50828621163954	   -0.62274127699451	    0.93683763294143	   -0.78198534619080	   -0.83717234985146	    1.03592989313456	   -0.65901311123723	   -0.58859887419292	    0.73857096771037	   -0.73251574873570	   -0.59732044239402	    0.54979662427717	   -0.71355043508485	   -0.66694528893184	    0.62899379926545	   -0.79560150828330	   -0.61295510589219	    0.41491547309273	   -0.70426128916476	   -0.62502741607094	    0.19037326810410	   -0.66146931328058	   -0.68356424499402	    0.28582231618218	   -0.74931418495283	   -0.73841299185862	    0.03143928620207	   -0.60980153247231	   -0.58200120970197	    0.09139654989216	   -0.66363249174660	   -0.66156784762942	    0.02780993781463	   -0.68940474186281	   -0.73841299185862	    0.03143928620207	   -0.60980153247231	   -0.58453528189355	    0.74928325236970	   -0.55035314997539	   -0.56469886285476	    0.58259038077996	   -0.57077251501497	   -0.64822209688748	    0.64070860296668	   -0.48432281455035	   -0.70563809319170	    0.45044610805581	   -0.53759732587322	   -0.90847147692164	    0.47390083121225	   -0.52743677816702	   -0.81568590663354	    0.53343549167774	   -0.48316870996742	   -1.08204513379634	    0.59037975168459	   -0.57126579883882	   -1.01683740877263	    0.43275895672017	   -0.50041501614801	   -1.08560427481020	    0.52312093061730	   -0.48229281629511	   -1.06331430328958	    0.31908420171256	   -0.44807938375608
44	   0.215	   -0.64206619788493	    0.93107502085918	   -0.50845342836015	   -0.62262325335898	    0.93666897844875	   -0.78213410221604	   -0.83730372131890	    1.03607412362911	   -0.65981759637622	   -0.58854750158249	    0.73861887259827	   -0.73275780053427	   -0.59710931186111	    0.54988068581045	   -0.71377298913709	   -0.66680753951241	    0.62903252527915	   -0.79570312330579	   -0.61271338546407	    0.41488575002792	   -0.70426873187912	   -0.62489023790826	    0.19034501671960	   -0.66144942770309	   -0.68338330558427	    0.28582102769077	   -0.74925898692776	   -0.73839742322313	    0.03144510158721	   -0.60979774088162	   -0.58195450850227	    0.09137049944844	   -0.66360841965363	   -0.66155434972894	    0.02781993251987	   -0.68940368057611	   -0.73839742322313	    0.03144510158721	   -0.60979774088162	   -0.58358012602574	    0.75099439520169	   -0.54981991151077	   -0.56186620551465	    0.58438353634116	   -0.56885149779261	   -0.64629545695630	    0.64235088215232	   -0.48279062970226	   -0.70282056617739	    0.45265644280442	   -0.53602435687268	   -0.90548641179388	    0.47751251682273	   -0.52791747203492	   -0.81254772364612	    0.53638076111239	   -0.48288810044763	   -1.07769972528710	    0.59525675560971	   -0.57355013347184	   -1.01433670074603	    0.43733409319851	   -0.50156578338303	   -1.08260076341913	    0.52830732612286	   -0.48439445193657	   -1.06234071285188	    0.32423270900301	   -0.44926289243992
45	   0.220	   -0.64240962239433	    0.93159870373269	   -0.50858935188967	   -0.62239511646404	    0.93651657396148	   -0.78223168751832	   -0.83736192147764	    1.03621360641761	   -0.66063565288774	   -0.58843458848546	    0.73866275794881	   -0.73287776303027	   -0.59685179770833	    0.54995859322153	   -0.71390339519914	   -0.66656101926185	    0.62907163610277	   -0.79576275317000	   -0.61243971733374	    0.41485384271834	   -0.70423551258916	   -0.62474328591454	    0.19031476315952	   -0.66140871533263	   -0.68319056519376	    0.28583139254710	   -0.74918141194307	   -0.73838287393159	    0.03144976451666	   -0.60979209220133	   -0.58190929074088	    0.09134320099128	   -0.66357960574463	   -0.66153935628170	    0.02783101605848	   -0.68939792092936	   -0.73838287393159	    0.03144976451666	   -0.60979209220133	   -0.58252976523354	    0.75280164919812	   -0.54915073846023	   -0.55901710318985	    0.58628195248234	   -0.56674437481407	   -0.64438094048914	    0.64402291956571	   -0.48120351672053	   -0.69964497148276	    0.45453788319906	   -0.53427035476528	   -0.90216270793459	    0.47956262388431	   -0.52819550742580	   -0.80946684715014	    0.53829321479765	   -0.48243778747452	   -1.07366782345150	    0.59746471557817	   -0.57554598547232	   -1.01117717915136	    0.43963831923532	   -0.50260303283720	   -1.07948104760468	    0.53076807354189	   -0.48626504657755	   -1.05997347652007	    0.32685651621395	   -0.45037964785364
